<svg xmlns="http://www.w3.org/2000/svg" viewBox="0 0 24 24" fill="currentColor">
  <path d="M11.998 24c-.321 0-.641-.084-.922-.247l-2.936-1.737c-.438-.245-.224-.332-.08-.383.585-.203.703-.25 1.328-.605.065-.037.151-.023.218.017l2.256 1.339c.082.045.198.045.272 0l8.795-5.076c.082-.047.134-.141.134-.238V6.921c0-.099-.053-.19-.137-.242l-8.791-5.072c-.081-.047-.189-.047-.271 0L3.075 6.68c-.085.05-.139.143-.139.242v10.15c0 .097.054.189.137.235l2.409 1.392c1.307.654 2.108-.116 2.108-.891V7.787c0-.142.114-.253.256-.253h1.115c.139 0 .255.111.255.253v10.021c0 1.745-.95 2.745-2.604 2.745-.508 0-.909 0-2.026-.551L2.28 18.675c-.57-.329-.922-.943-.922-1.604V6.921c0-.659.353-1.275.922-1.603l8.795-5.082c.557-.315 1.296-.315 1.848 0l8.794 5.082c.57.329.924.944.924 1.603v10.15c0 .659-.354 1.273-.924 1.604l-8.794 5.078c-.28.161-.6.245-.925.247zm2.718-6.995c-3.848 0-4.655-1.767-4.655-3.249 0-.142.113-.253.256-.253h1.136c.127 0 .233.092.252.217.172 1.161.684 1.747 3.012 1.747 1.854 0 2.642-.419 2.642-1.401 0-.566-.224-.986-3.1-1.268-2.405-.238-3.893-.768-3.893-2.694 0-1.775 1.496-2.831 4.004-2.831 2.816 0 4.213.977 4.39 3.075.006.07-.019.138-.064.188a.253.253 0 01-.176.078h-1.141c-.12 0-.226-.083-.251-.2-.275-1.215-.944-1.605-2.757-1.605-2.031 0-2.268.707-2.268 1.237 0 .642.279.829 3.005 1.191 2.701.358 3.981.864 3.981 2.763 0 1.915-1.597 3.005-4.381 3.005z"/>
</svg>
